<svg width="62" height="66" viewBox="0 0 62 66" fill="none" xmlns="http://www.w3.org/2000/svg">
<g clip-path="url(#clip0_55_394)">
<path d="M38.75 11V30.25H13.3558L11.8316 31.8725L10.3333 33.4675V11H38.75ZM41.3333 5.5H7.74996C6.32913 5.5 5.16663 6.7375 5.16663 8.25V46.75L15.5 35.75H41.3333C42.7541 35.75 43.9166 34.5125 43.9166 33V8.25C43.9166 6.7375 42.7541 5.5 41.3333 5.5ZM54.25 16.5H49.0833V41.25H15.5V46.75C15.5 48.2625 16.6625 49.5 18.0833 49.5H46.5L56.8333 60.5V19.25C56.8333 17.7375 55.6708 16.5 54.25 16.5Z" fill="white" fill-opacity="0.5"/>
</g>
<defs>
<clipPath id="clip0_55_394">
<rect width="62" height="66" fill="white"/>
</clipPath>
</defs>
</svg>
