<svg width="62" height="64" viewBox="0 0 62 64" fill="none" xmlns="http://www.w3.org/2000/svg">
<g clip-path="url(#clip0_55_397)">
<path d="M50.1941 34.6134C50.2975 33.76 50.375 32.9067 50.375 32C50.375 31.0934 50.2975 30.24 50.1941 29.3867L55.645 24.9867C56.1358 24.5867 56.265 23.8667 55.955 23.28L50.7883 14.0534C50.5558 13.6267 50.1166 13.3867 49.6516 13.3867C49.4966 13.3867 49.3416 13.4134 49.2125 13.4667L42.78 16.1334C41.4366 15.0667 39.99 14.1867 38.4141 13.52L37.4325 6.45337C37.355 5.81337 36.8125 5.33337 36.1666 5.33337H25.8333C25.1875 5.33337 24.645 5.81337 24.5675 6.45337L23.5858 13.52C22.01 14.1867 20.5633 15.0934 19.22 16.1334L12.7875 13.4667C12.6325 13.4134 12.4775 13.3867 12.3225 13.3867C11.8833 13.3867 11.4441 13.6267 11.2116 14.0534L6.04495 23.28C5.70912 23.8667 5.86412 24.5867 6.35495 24.9867L11.8058 29.3867C11.7025 30.24 11.625 31.12 11.625 32C11.625 32.88 11.7025 33.76 11.8058 34.6134L6.35495 39.0134C5.86412 39.4134 5.73495 40.1334 6.04495 40.72L11.2116 49.9467C11.4441 50.3734 11.8833 50.6134 12.3483 50.6134C12.5033 50.6134 12.6583 50.5867 12.7875 50.5334L19.22 47.8667C20.5633 48.9334 22.01 49.8134 23.5858 50.48L24.5675 57.5467C24.645 58.1867 25.1875 58.6667 25.8333 58.6667H36.1666C36.8125 58.6667 37.355 58.1867 37.4325 57.5467L38.4141 50.48C39.99 49.8134 41.4366 48.9067 42.78 47.8667L49.2125 50.5334C49.3675 50.5867 49.5225 50.6134 49.6775 50.6134C50.1166 50.6134 50.5558 50.3734 50.7883 49.9467L55.955 40.72C56.265 40.1334 56.1358 39.4134 55.645 39.0134L50.1941 34.6134ZM45.0791 30.0534C45.1825 30.88 45.2083 31.44 45.2083 32C45.2083 32.56 45.1566 33.1467 45.0791 33.9467L44.7175 36.96L47.0166 38.8267L49.8066 41.0667L47.9983 44.2934L44.7175 42.9334L42.0308 41.8134L39.7058 43.6267C38.595 44.48 37.5358 45.12 36.4766 45.5734L33.7383 46.72L33.325 49.7334L32.8083 53.3334H29.1916L28.7008 49.7334L28.2875 46.72L25.5491 45.5734C24.4383 45.0934 23.405 44.48 22.3716 43.68L20.0208 41.8134L17.2825 42.96L14.0016 44.32L12.1933 41.0934L14.9833 38.8534L17.2825 36.9867L16.9208 33.9734C16.8433 33.1467 16.7916 32.5334 16.7916 32C16.7916 31.4667 16.8433 30.8534 16.9208 30.0534L17.2825 27.04L14.9833 25.1734L12.1933 22.9334L14.0016 19.7067L17.2825 21.0667L19.9691 22.1867L22.2941 20.3734C23.405 19.52 24.4641 18.88 25.5233 18.4267L28.2616 17.28L28.675 14.2667L29.1916 10.6667H32.7825L33.2733 14.2667L33.6866 17.28L36.425 18.4267C37.5358 18.9067 38.5691 19.52 39.6025 20.32L41.9533 22.1867L44.6916 21.04L47.9725 19.68L49.7808 22.9067L47.0166 25.1734L44.7175 27.04L45.0791 30.0534ZM31 21.3334C25.2908 21.3334 20.6666 26.1067 20.6666 32C20.6666 37.8934 25.2908 42.6667 31 42.6667C36.7091 42.6667 41.3333 37.8934 41.3333 32C41.3333 26.1067 36.7091 21.3334 31 21.3334ZM31 37.3334C28.1583 37.3334 25.8333 34.9334 25.8333 32C25.8333 29.0667 28.1583 26.6667 31 26.6667C33.8416 26.6667 36.1666 29.0667 36.1666 32C36.1666 34.9334 33.8416 37.3334 31 37.3334Z" fill="white" fill-opacity="0.5"/>
</g>
<defs>
<clipPath id="clip0_55_397">
<rect width="62" height="64" fill="white"/>
</clipPath>
</defs>
</svg>
