<svg width="53" height="56" viewBox="0 0 53 56" fill="none" xmlns="http://www.w3.org/2000/svg">
<path fill-rule="evenodd" clip-rule="evenodd" d="M37.6889 22.4C37.6889 32.022 30.3066 39.8222 21.2 39.8222C12.0934 39.8222 4.71111 32.022 4.71111 22.4C4.71111 12.778 12.0934 4.97778 21.2 4.97778C30.3066 4.97778 37.6889 12.778 37.6889 22.4ZM34.4328 39.9016C30.806 42.967 26.2056 44.8 21.2 44.8C9.49156 44.8 0 34.7712 0 22.4C0 10.0288 9.49156 0 21.2 0C32.9084 0 42.4 10.0288 42.4 22.4C42.4 27.6889 40.6652 32.5497 37.764 36.3818L52.3101 51.7512C53.23 52.7232 53.23 54.2991 52.3101 55.271C51.3902 56.243 49.8987 56.243 48.9788 55.271L34.4328 39.9016Z" fill="white" fill-opacity="0.5"/>
</svg>
