<svg width="45" height="60" viewBox="0 0 45 60" fill="none" xmlns="http://www.w3.org/2000/svg">
<path fill-rule="evenodd" clip-rule="evenodd" d="M15 0C9.47715 0 5 4.47715 5 10V22.4077C4.96919 22.4875 4.84478 22.7791 4.41342 23.372C4.13585 23.7535 3.83968 24.1202 3.45682 24.5943L3.18456 24.9319C2.71593 25.5143 2.11773 26.2684 1.5875 27.0924C0.582527 28.6542 0 30.5167 0 32.5V37.5C0 43.0228 4.47715 47.5 10 47.5H20V57.5C20 58.8807 21.1193 60 22.5 60C23.8807 60 25 58.8807 25 57.5V47.5H35C40.5228 47.5 45 43.0228 45 37.5V32.5C45 30.5167 44.4175 28.6542 43.4125 27.0924C42.8823 26.2684 42.2841 25.5143 41.8154 24.9319L41.5431 24.5942L41.5431 24.5942C41.1603 24.1201 40.8641 23.7534 40.5866 23.372C40.1552 22.7791 40.0308 22.4875 40 22.4077V10C40 4.47715 35.5228 0 30 0H15ZM15 5C12.2386 5 10 7.23858 10 10V22.5C10 24.4529 8.64281 26.1323 7.31953 27.7696C6.77172 28.4475 6.22971 29.1181 5.79222 29.798C5.29086 30.5772 5 31.5046 5 32.5V37.5C5 40.2614 7.23858 42.5 10 42.5H35C37.7614 42.5 40 40.2614 40 37.5V32.5C40 31.5046 39.7091 30.5772 39.2078 29.798C38.7703 29.1181 38.2283 28.4475 37.6805 27.7696C36.3572 26.1323 35 24.4529 35 22.5V10C35 7.23858 32.7614 5 30 5H15Z" fill="white" fill-opacity="0.5"/>
</svg>
