<svg width="52" height="54" viewBox="0 0 52 54" fill="none" xmlns="http://www.w3.org/2000/svg">
<path fill-rule="evenodd" clip-rule="evenodd" d="M36.0597 46.933C33.0536 48.5724 29.6311 49.5 26 49.5C22.3689 49.5 18.9464 48.5724 15.9403 46.933C15.4412 45.6399 15.1667 44.2282 15.1667 42.75C15.1667 36.5368 20.0169 31.5 26 31.5C31.9831 31.5 36.8333 36.5368 36.8333 42.75C36.8333 44.2282 36.5588 45.6399 36.0597 46.933ZM41.1636 43.0714C41.1656 42.9645 41.1667 42.8574 41.1667 42.75C41.1667 36.6918 37.8729 31.4324 33.0435 28.7978C35.3633 26.7345 36.8333 23.6705 36.8333 20.25C36.8333 14.0368 31.9831 8.99998 26 8.99998C20.0169 8.99998 15.1667 14.0368 15.1667 20.25C15.1667 23.6705 16.6367 26.7345 18.9565 28.7978C14.1271 31.4324 10.8333 36.6918 10.8333 42.75C10.8333 42.8574 10.8344 42.9645 10.8364 43.0714C6.82333 38.9876 4.33333 33.2958 4.33333 27C4.33333 14.5736 14.0338 4.5 26 4.5C37.9662 4.5 47.6667 14.5736 47.6667 27C47.6667 33.2958 45.1767 38.9876 41.1636 43.0714ZM38.3931 50.7412C46.498 46.1691 52 37.2518 52 27C52 12.0883 40.3594 0 26 0C11.6406 0 0 12.0883 0 27C0 36.8242 5.0526 45.4229 12.6065 50.1467C16.4959 52.5789 21.0485 53.9839 25.9159 53.9999M26.0177 54C30.4984 53.9969 34.714 52.8168 38.3931 50.7412L26.0177 54ZM26 27C29.5898 27 32.5 23.9779 32.5 20.25C32.5 16.5221 29.5898 13.5 26 13.5C22.4101 13.5 19.5 16.5221 19.5 20.25C19.5 23.9779 22.4101 27 26 27Z" fill="white"/>
</svg>
