<svg width="45" height="61" viewBox="0 0 45 61" fill="none" xmlns="http://www.w3.org/2000/svg">
<path fill-rule="evenodd" clip-rule="evenodd" d="M28.1445 3.44211C26.938 1.36881 24.8605 0 22.4999 0C20.1393 0 18.0617 1.36884 16.8553 3.44218C8.41825 6.20294 2.25 14.9961 2.25 25.4167V34.748C0.84285 36.7123 0 39.2137 0 41.9375C0 48.2543 4.53312 53.375 10.125 53.375L15.75 53.375C15.75 55.3973 16.4612 57.3367 17.727 58.7667C18.9929 60.1967 20.7098 61 22.5 61C24.2902 61 26.0071 60.1967 27.273 58.7667C28.5388 57.3367 29.25 55.3973 29.25 53.375L34.875 53.375C40.4669 53.375 45 48.2543 45 41.9375C45 39.2137 44.1572 36.7123 42.75 34.748V25.4167C42.75 14.996 36.5816 6.20279 28.1445 3.44211ZM6.75 34.748C6.75 35.912 6.39635 37.0408 5.74816 37.9456C4.96557 39.0381 4.5 40.4195 4.5 41.9375C4.5 45.4468 7.0184 48.2917 10.125 48.2917H34.875C37.9816 48.2917 40.5 45.4468 40.5 41.9375C40.5 40.4195 40.0344 39.0381 39.2518 37.9456C38.6037 37.0408 38.25 35.912 38.25 34.748V25.4167C38.25 15.5906 31.1985 7.625 22.5 7.625C13.8015 7.625 6.75 15.5906 6.75 25.4167V34.748ZM20.909 55.1722C20.4871 54.6956 20.25 54.0491 20.25 53.375H24.75C24.75 54.0491 24.5129 54.6956 24.091 55.1722C23.669 55.6489 23.0967 55.9167 22.5 55.9167C21.9033 55.9167 21.331 55.6489 20.909 55.1722Z" fill="white" fill-opacity="0.5"/>
</svg>
